<svg width="55" height="22" viewBox="0 0 55 22" fill="none" xmlns="http://www.w3.org/2000/svg">
<path d="M30.7 2.98V10H28.99V7.11H26.33V10H24.62V2.98H26.33V5.73H28.99V2.98H30.7ZM35.2545 10.07C34.5945 10.07 33.9878 9.91667 33.4345 9.61C32.8878 9.30333 32.4511 8.87667 32.1245 8.33C31.8045 7.77667 31.6445 7.15667 31.6445 6.47C31.6445 5.78333 31.8045 5.16667 32.1245 4.62C32.4511 4.07333 32.8878 3.64667 33.4345 3.34C33.9878 3.03333 34.5945 2.88 35.2545 2.88C35.9145 2.88 36.5178 3.03333 37.0645 3.34C37.6178 3.64667 38.0511 4.07333 38.3645 4.62C38.6845 5.16667 38.8445 5.78333 38.8445 6.47C38.8445 7.15667 38.6845 7.77667 38.3645 8.33C38.0445 8.87667 37.6111 9.30333 37.0645 9.61C36.5178 9.91667 35.9145 10.07 35.2545 10.07ZM35.2545 8.51C35.8145 8.51 36.2611 8.32333 36.5945 7.95C36.9345 7.57667 37.1045 7.08333 37.1045 6.47C37.1045 5.85 36.9345 5.35667 36.5945 4.99C36.2611 4.61667 35.8145 4.43 35.2545 4.43C34.6878 4.43 34.2345 4.61333 33.8945 4.98C33.5611 5.34667 33.3945 5.84333 33.3945 6.47C33.3945 7.09 33.5611 7.58667 33.8945 7.96C34.2345 8.32667 34.6878 8.51 35.2545 8.51ZM45.1458 5.24C45.1458 5.64667 45.0524 6.02 44.8658 6.36C44.6791 6.69333 44.3924 6.96333 44.0058 7.17C43.6191 7.37667 43.1391 7.48 42.5658 7.48H41.5058V10H39.7958V2.98H42.5658C43.1258 2.98 43.5991 3.07667 43.9858 3.27C44.3724 3.46333 44.6624 3.73 44.8558 4.07C45.0491 4.41 45.1458 4.8 45.1458 5.24ZM42.4358 6.12C42.7624 6.12 43.0058 6.04333 43.1658 5.89C43.3258 5.73667 43.4058 5.52 43.4058 5.24C43.4058 4.96 43.3258 4.74333 43.1658 4.59C43.0058 4.43667 42.7624 4.36 42.4358 4.36H41.5058V6.12H42.4358ZM29.97 14.24C29.97 14.6467 29.8767 15.02 29.69 15.36C29.5033 15.6933 29.2167 15.9633 28.83 16.17C28.4433 16.3767 27.9633 16.48 27.39 16.48H26.33V19H24.62V11.98H27.39C27.95 11.98 28.4233 12.0767 28.81 12.27C29.1967 12.4633 29.4867 12.73 29.68 13.07C29.8733 13.41 29.97 13.8 29.97 14.24ZM27.26 15.12C27.5867 15.12 27.83 15.0433 27.99 14.89C28.15 14.7367 28.23 14.52 28.23 14.24C28.23 13.96 28.15 13.7433 27.99 13.59C27.83 13.4367 27.5867 13.36 27.26 13.36H26.33V15.12H27.26ZM36.9402 11.98V19H35.2302V16.11H32.5702V19H30.8602V11.98H32.5702V14.73H35.2302V11.98H36.9402ZM39.8847 13.35V14.77H42.1747V16.09H39.8847V17.63H42.4747V19H38.1747V11.98H42.4747V13.35H39.8847ZM47.1648 19L45.7048 16.35H45.2948V19H43.5848V11.98H46.4548C47.0082 11.98 47.4782 12.0767 47.8648 12.27C48.2582 12.4633 48.5515 12.73 48.7448 13.07C48.9382 13.4033 49.0348 13.7767 49.0348 14.19C49.0348 14.6567 48.9015 15.0733 48.6348 15.44C48.3748 15.8067 47.9882 16.0667 47.4748 16.22L49.0948 19H47.1648ZM45.2948 15.14H46.3548C46.6682 15.14 46.9015 15.0633 47.0548 14.91C47.2148 14.7567 47.2948 14.54 47.2948 14.26C47.2948 13.9933 47.2148 13.7833 47.0548 13.63C46.9015 13.4767 46.6682 13.4 46.3548 13.4H45.2948V15.14ZM51.8183 13.35V14.77H54.1083V16.09H51.8183V17.63H54.4083V19H50.1083V11.98H54.4083V13.35H51.8183Z" fill="#6B9080"/>
<circle cx="11" cy="11" r="11" fill="#6B9080"/>
<g clip-path="url(#clip0_41_159)">
<path d="M11.26 16.41C10.3666 16.41 9.59328 16.2433 8.93995 15.91C8.29995 15.5767 7.81328 15.1433 7.47995 14.61C7.14662 14.0633 6.97995 13.49 6.97995 12.89V12.77H9.67995V12.89C9.67995 13.25 9.81995 13.57 10.1 13.85C10.38 14.13 10.7866 14.27 11.32 14.27C11.76 14.27 12.1133 14.17 12.38 13.97C12.66 13.7567 12.8 13.47 12.8 13.11C12.8 12.79 12.68 12.5367 12.44 12.35C12.2 12.1633 11.9 12.0433 11.54 11.99L10.34 11.75C9.55328 11.6033 8.83995 11.29 8.19995 10.81C7.55995 10.33 7.23995 9.60333 7.23995 8.63C7.23995 7.63 7.60662 6.85 8.33995 6.29C9.07328 5.71667 10.0133 5.43 11.16 5.43C12 5.43 12.7266 5.58333 13.34 5.89C13.9533 6.19667 14.42 6.60333 14.74 7.11C15.06 7.60333 15.22 8.13667 15.22 8.71V8.79H12.52V8.73C12.52 8.41 12.4 8.11667 12.16 7.85C11.92 7.57 11.5533 7.43 11.06 7.43C10.6466 7.43 10.3133 7.53667 10.06 7.75C9.80662 7.96333 9.67995 8.24333 9.67995 8.59C9.67995 8.91 9.80662 9.16333 10.06 9.35C10.3266 9.53667 10.6533 9.66333 11.04 9.73L12.36 9.99C13.2133 10.1767 13.9333 10.5167 14.52 11.01C15.1066 11.49 15.4 12.1767 15.4 13.07C15.4 13.7367 15.22 14.3233 14.86 14.83C14.5 15.3367 14 15.73 13.36 16.01C12.7333 16.2767 12.0333 16.41 11.26 16.41Z" fill="white"/>
</g>
<defs>
<clipPath id="clip0_41_159">
<rect width="12" height="14" fill="white" transform="translate(5 3)"/>
</clipPath>
</defs>
</svg>
