<svg width="22" height="22" viewBox="0 0 22 22" fill="none" xmlns="http://www.w3.org/2000/svg">
<circle cx="11" cy="11" r="11" fill="#6B9080"/>
<g clip-path="url(#clip0_41_158)">
<path d="M11.26 16.41C10.3666 16.41 9.59328 16.2433 8.93995 15.91C8.29995 15.5767 7.81328 15.1433 7.47995 14.61C7.14662 14.0633 6.97995 13.49 6.97995 12.89V12.77H9.67995V12.89C9.67995 13.25 9.81995 13.57 10.1 13.85C10.38 14.13 10.7866 14.27 11.32 14.27C11.76 14.27 12.1133 14.17 12.38 13.97C12.66 13.7567 12.8 13.47 12.8 13.11C12.8 12.79 12.68 12.5367 12.44 12.35C12.2 12.1633 11.9 12.0433 11.54 11.99L10.34 11.75C9.55328 11.6033 8.83995 11.29 8.19995 10.81C7.55995 10.33 7.23995 9.60333 7.23995 8.63C7.23995 7.63 7.60662 6.85 8.33995 6.29C9.07328 5.71667 10.0133 5.43 11.16 5.43C12 5.43 12.7266 5.58333 13.34 5.89C13.9533 6.19667 14.42 6.60333 14.74 7.11C15.06 7.60333 15.22 8.13667 15.22 8.71V8.79H12.52V8.73C12.52 8.41 12.4 8.11667 12.16 7.85C11.92 7.57 11.5533 7.43 11.06 7.43C10.6466 7.43 10.3133 7.53667 10.06 7.75C9.80662 7.96333 9.67995 8.24333 9.67995 8.59C9.67995 8.91 9.80662 9.16333 10.06 9.35C10.3266 9.53667 10.6533 9.66333 11.04 9.73L12.36 9.99C13.2133 10.1767 13.9333 10.5167 14.52 11.01C15.1066 11.49 15.4 12.1767 15.4 13.07C15.4 13.7367 15.22 14.3233 14.86 14.83C14.5 15.3367 14 15.73 13.36 16.01C12.7333 16.2767 12.0333 16.41 11.26 16.41Z" fill="white"/>
</g>
<defs>
<clipPath id="clip0_41_158">
<rect width="12" height="14" fill="white" transform="translate(5 3)"/>
</clipPath>
</defs>
</svg>
